<?xml version="1.0" encoding="UTF-8" standalone="no"?>
<svg
   xmlns:dc="http://purl.org/dc/elements/1.1/"
   xmlns:cc="http://creativecommons.org/ns#"
   xmlns:rdf="http://www.w3.org/1999/02/22-rdf-syntax-ns#"
   xmlns:svg="http://www.w3.org/2000/svg"
   xmlns="http://www.w3.org/2000/svg"
   xml:space="preserve"
   style="enable-background:new 0 0 612 612;"
   viewBox="0 0 612 612"
   height="612px"
   width="612px"
   y="0px"
   x="0px"
   id="Capa_1"
   version="1.1"><metadata
     id="metadata44"><rdf:RDF><cc:Work
         rdf:about=""><dc:format>image/svg+xml</dc:format><dc:type
           rdf:resource="http://purl.org/dc/dcmitype/StillImage" /><dc:title></dc:title></cc:Work></rdf:RDF></metadata><defs
     id="defs42" /><g
     id="layer1"><path
       d="M 557.54239,180.87712 A 254.13559,127.7161 0 0 1 310.46277,308.54399 254.13559,127.7161 0 0 1 49.663022,187.96636 254.13559,127.7161 0 0 1 282.26063,53.603914 254.13559,127.7161 0 0 1 555.97635,166.7205"
       id="path4191"
       style="fill:#ffffff;fill-opacity:1" /><rect
       y="256.72882"
       x="128.36441"
       height="324.15253"
       width="357.86441"
       id="rect4193"
       style="fill:#ffffff;fill-opacity:1" /></g><g
     id="layer2" /><g
     id="g3"><g
       id="Cap_x5F_cook"><g
         id="g6"><path
           id="path8"
           d="M487.688,57.375c-16.371,0-32.341,3.251-47.277,9.543C410.557,25.494,360.679,0,306,0     c-54.678,0-104.556,25.494-134.411,66.918c-14.937-6.292-30.906-9.543-47.277-9.543C55.769,57.375,0,113.144,0,181.688     c0,58.656,40.889,107.846,95.625,120.832v252.106C95.625,586.315,121.31,612,153,612h306c31.69,0,57.375-25.685,57.375-57.375     V302.519C571.11,289.514,612,240.344,612,181.688C612,113.144,556.231,57.375,487.688,57.375z M459,554.625H153v-38.25h306     V554.625z M459,459H153V302.251c20.062-4.781,38.709-14.114,54.085-27.903C235.257,294.697,269.949,306,306,306     s70.763-11.303,98.914-31.652c15.357,13.789,34.005,23.122,54.086,27.903V459z M487.688,248.625     c-22.605,0-43.548-11.417-56.018-30.523c-4.838-7.42-12.813-12.183-21.63-12.929c-0.804-0.057-1.588-0.096-2.391-0.096     c-7.976,0-15.625,3.328-21.095,9.238c-20.101,21.821-49.477,34.31-80.555,34.31s-60.454-12.489-80.555-34.291     c-6.005-6.521-14.63-9.773-23.485-9.161c-8.816,0.746-16.792,5.508-21.63,12.929c-12.469,19.106-33.392,30.523-56.017,30.523     c-36.911,0-66.938-30.026-66.938-66.938s30.026-66.938,66.938-66.938c14.42,0,28.381,4.839,40.373,14     c6.98,5.336,16.026,7.153,24.556,5.011c8.511-2.18,15.568-8.167,19.125-16.218C224.47,80.994,262.797,57.375,306,57.375     s81.53,23.6,97.652,60.167c3.538,8.052,10.595,14.038,19.105,16.237c8.53,2.142,17.576,0.344,24.557-5.011     c11.991-9.18,25.953-14.019,40.373-14.019c36.911,0,66.938,30.026,66.938,66.938S524.599,248.625,487.688,248.625z" /></g></g></g><g
     id="g10" /><g
     id="g12" /><g
     id="g14" /><g
     id="g16" /><g
     id="g18" /><g
     id="g20" /><g
     id="g22" /><g
     id="g24" /><g
     id="g26" /><g
     id="g28" /><g
     id="g30" /><g
     id="g32" /><g
     id="g34" /><g
     id="g36" /><g
     id="g38" /></svg>